<?xml version="1.0" encoding="utf-8"?>
<!-- Generator: Adobe Illustrator 22.0.1, SVG Export Plug-In . SVG Version: 6.00 Build 0)  -->
<svg version="1.1" id="Layer_1" focusable="false" xmlns="http://www.w3.org/2000/svg" xmlns:xlink="http://www.w3.org/1999/xlink"
	 x="0px" y="0px" viewBox="0 0 42 42" style="enable-background:new 0 0 42 42;" xml:space="preserve">
<style type="text/css">
	.st0{fill:#FFFFFF;}
</style>
<g>
	<path class="st0" d="M28,16.8c-0.5,0.2-1,0.3-1.6,0.4c0.6-0.3,1-0.9,1.2-1.5c-0.5,0.3-1.2,0.5-1.8,0.7c-0.5-0.6-1.2-0.9-2.1-0.9
		c-1.6,0-2.8,1.2-2.8,2.8c0,0.2,0,0.4,0.1,0.6c-2.3-0.1-4.4-1.1-5.8-2.8c-0.3,0.4-0.4,0.8-0.4,1.3c0,1,0.5,1.8,1.2,2.3
		c-0.4,0-0.8-0.1-1.2-0.3v0.1c0,1.4,1,2.5,2.3,2.8c-0.4,0.1-0.8,0.1-1.3,0.1c0.3,0.9,1.3,1.8,2.5,1.8c-1,0.8-2.3,1.2-3.5,1.2
		c-0.2,0-0.5,0-0.7-0.1c1.4,0.8,2.9,1.2,4.4,1.2c5.2,0,8-4.2,8-7.9c0-0.1,0-0.2,0-0.3C27.1,17.8,27.5,17.4,28,16.8"/>
</g>
</svg>
